<svg 
 xmlns="http://www.w3.org/2000/svg"
 xmlns:xlink="http://www.w3.org/1999/xlink"
 width="38px" height="38px" viewBox="0 0 38px 38px">
<path fill-rule="evenodd"  opacity="0.702" fill="rgb(254, 254, 254)"
 d="M0.938,0.000 C13.436,0.000 25.501,0.000 38.000,0.000 C38.000,12.499 38.000,24.533 38.000,37.031 C25.501,37.031 13.436,37.031 0.938,37.031 C0.938,24.500 0.938,12.532 0.938,0.000 ZM17.000,9.000 C17.000,11.292 17.000,13.646 17.000,15.938 C14.709,15.938 12.354,16.031 10.063,16.031 C10.063,17.490 10.000,19.542 10.000,21.000 C12.292,21.000 14.677,21.000 16.969,21.000 C16.969,23.291 17.000,25.678 17.000,27.969 C18.458,27.969 20.511,27.906 21.969,27.906 C21.969,25.615 21.938,23.229 21.938,20.938 C24.229,20.938 26.646,20.938 28.938,20.938 C28.938,19.480 28.969,17.458 28.969,16.000 C26.677,16.000 24.229,16.031 21.938,16.031 C21.938,13.740 21.906,11.292 21.906,9.000 C20.448,9.000 18.458,9.000 17.000,9.000 Z"/>
</svg>